# xmcd CD database file
#
# Track frame offsets:
#	182
#	14680
#	30127
#	45162
#	59320
#	75215
#	90910
#	105430
#	120630
#	134610
#	150407
#	166245
#	179362
#	192382
#	205990
#	219990
#
# Disc length: 3137 seconds
#
# Revision: 0
# Processed by: cddbd v1.4PL0 Copyright (c) Steve Scherf et al.
# Submitted via: CDex 1.50
#
DISCID=bc0c3f10
DTITLE=Jelly Roll Morton - The Complete Jelly Roll Morton Vol. 1
DYEAR=1926
DGENRE=Jazz
TTITLE0=Black Bottom Stomp
TTITLE1=Smoke House Blues
TTITLE2=The Chant
TTITLE3=The Chant
TTITLE4=Sidewalk Blues
TTITLE5=Sidewalk Blues
TTITLE6=Dead Man Blues
TTITLE7=Dead Man Blues
TTITLE8=Steamboat
TTITLE9=Someday Sweetheart
TTITLE10=Someday Sweetheart
TTITLE11=Grandpa's Spells
TTITLE12=Grandpa's Spells
TTITLE13=Original Jelly Roll Blues
TTITLE14=Original Jelly Roll Blues
TTITLE15=Doctor Jazz - Stomp
EXTD=YEAR: 1926
EXTT0=
EXTT1=
EXTT2=
EXTT3=
EXTT4=
EXTT5=
EXTT6=
EXTT7=
EXTT8=
EXTT9=
EXTT10=
EXTT11=
EXTT12=
EXTT13=
EXTT14=
EXTT15=
PLAYORDER=
